<?xml version="1.0" standalone="no"?>
<!DOCTYPE svg PUBLIC "-//W3C//DTD SVG 20010904//EN"
 "http://www.w3.org/TR/2001/REC-SVG-20010904/DTD/svg10.dtd">
<svg version="1.0" xmlns="http://www.w3.org/2000/svg"
 width="360.000000pt" height="360.000000pt" viewBox="0 0 360.000000 360.000000"
 preserveAspectRatio="xMidYMid meet">

<g transform="translate(0.000000,360.000000) scale(0.100000,-0.100000)"
fill="#000000" stroke="none">
<path d="M2382 3286 c-105 -20 -195 -68 -379 -200 -153 -109 -166 -116 -210
-116 -232 -1 -463 -173 -528 -394 l-12 -41 -299 -5 c-164 -3 -300 -7 -302 -8
-1 -1 -15 -30 -31 -64 -16 -35 -76 -164 -133 -288 -58 -124 -124 -266 -146
-316 l-42 -91 0 -711 c0 -699 0 -712 20 -732 20 -20 33 -20 1480 -20 1447 0
1460 0 1480 20 20 20 20 33 20 734 l0 713 -44 94 c-88 188 -179 385 -202 435
l-23 52 103 61 c56 33 108 61 114 61 7 0 21 9 32 20 19 19 20 33 20 340 0 365
3 352 -86 364 -51 7 -172 26 -454 71 -209 34 -287 38 -378 21z m488 -155 l305
-47 3 -262 c1 -174 -1 -262 -8 -262 -6 0 -47 -23 -92 -51 -112 -70 -138 -80
-248 -95 -126 -18 -204 -17 -336 1 -68 10 -166 15 -261 14 -163 -3 -183 3
-183 47 0 54 79 90 285 129 198 38 257 58 294 100 36 42 45 71 39 130 -7 54
-37 97 -85 120 -29 14 -53 17 -118 13 -90 -6 -140 -24 -242 -88 l-63 -40 -38
28 c-22 15 -58 36 -80 46 -23 11 -42 22 -42 25 1 8 200 149 252 178 67 39 157
62 238 62 41 0 211 -21 380 -48z m-325 -291 c15 -16 16 -25 7 -44 -11 -26 -60
-44 -177 -66 -33 -6 -70 -13 -81 -15 -15 -3 -27 3 -37 19 -15 23 -15 24 60 66
106 61 195 76 228 40z m-563 -27 c37 -17 90 -53 118 -79 l51 -48 -56 -22 c-30
-12 -68 -32 -85 -44 l-30 -21 -31 31 c-17 17 -44 34 -60 37 -23 4 -29 11 -29
32 0 40 -26 71 -60 71 -32 0 -60 -31 -60 -67 0 -17 -11 -27 -45 -42 -62 -27
-87 -70 -82 -139 6 -81 55 -123 186 -156 75 -19 91 -30 91 -62 0 -31 -36 -54
-86 -54 -48 0 -77 19 -102 70 -23 46 -72 55 -97 16 -14 -21 -15 -31 -5 -61 16
-47 66 -104 107 -122 27 -11 33 -19 33 -43 l0 -30 -124 0 -125 0 -34 43 c-49
60 -76 119 -93 200 -28 134 12 279 104 378 102 111 197 151 347 146 88 -2 108
-6 167 -34z m-137 -253 c14 -5 30 -21 35 -36 6 -14 19 -28 29 -31 11 -3 22
-14 25 -26 6 -26 1 -33 -16 -19 -7 5 -50 20 -96 32 -93 25 -118 48 -80 74 26
18 65 20 103 6z m-605 -187 c0 -21 4 -55 9 -75 8 -36 7 -38 -15 -38 -34 0 -49
-31 -72 -142 -15 -76 -17 -102 -8 -120 l12 -23 634 0 634 0 12 23 c9 18 7 44
-8 120 -22 111 -38 142 -72 142 -20 0 -22 4 -18 26 5 30 2 30 227 4 81 -9 123
-8 220 4 66 8 122 12 125 10 3 -3 55 -112 116 -242 l110 -237 -673 -3 c-370
-1 -976 -1 -1347 0 l-673 3 31 65 c17 36 79 167 136 292 l105 228 258 0 257 0
0 -37z m898 -61 c79 -3 92 -6 92 -21 0 -26 -54 -130 -90 -173 l-31 -38 -125 0
-124 0 0 29 c0 25 6 31 35 41 49 16 103 82 111 137 5 36 9 43 23 37 9 -4 58
-9 109 -12z m1042 -1252 l0 -640 -1380 0 -1380 0 0 640 0 640 1380 0 1380 0 0
-640z"/>
<path d="M1011 1498 c-53 -27 -80 -73 -88 -150 -7 -71 11 -132 52 -176 32 -35
36 -37 98 -37 77 0 111 19 141 80 26 52 27 166 2 218 -38 78 -126 106 -205 65z
m95 -56 c37 -25 51 -148 23 -207 -20 -43 -70 -47 -96 -9 -25 39 -25 159 0 197
17 26 50 35 73 19z"/>
<path d="M2470 1513 c-71 -27 -109 -95 -110 -194 0 -118 58 -189 155 -189 52
0 105 29 129 69 24 41 32 147 16 205 -23 84 -115 137 -190 109z m86 -84 c23
-25 31 -132 14 -184 -21 -63 -77 -67 -105 -8 -23 48 -17 163 9 192 24 27 58
27 82 0z"/>
<path d="M600 1320 l0 -193 83 5 c122 8 174 42 198 132 14 51 6 136 -16 173
-33 56 -61 68 -167 71 l-98 4 0 -192z m165 107 c18 -15 28 -36 32 -64 12 -92
-25 -163 -87 -163 l-30 0 0 118 c0 65 3 122 7 125 13 14 53 6 78 -16z"/>
<path d="M1290 1323 l0 -188 35 -1 35 -1 0 131 1 131 18 -45 c22 -53 91 -203
97 -209 2 -2 21 -5 44 -6 l40 -2 0 188 0 189 -35 0 -35 0 -1 -117 0 -118 -23
50 c-13 28 -37 80 -55 118 l-31 67 -45 0 -45 0 0 -187z"/>
<path d="M1700 1507 c0 -2 -20 -80 -45 -173 -25 -92 -45 -176 -45 -185 0 -13
9 -17 39 -17 38 -1 39 1 50 44 11 44 12 44 55 44 44 0 44 0 51 -40 4 -22 10
-40 13 -41 55 -6 82 -2 82 10 0 8 -16 76 -36 150 -19 75 -40 153 -45 174 l-10
37 -54 0 c-30 0 -55 -2 -55 -3z m79 -199 c1 -14 -7 -18 -30 -18 -24 0 -29 4
-25 18 2 9 10 44 17 77 l12 60 13 -60 c7 -33 13 -68 13 -77z"/>
<path d="M1928 1475 c4 -33 6 -35 43 -35 l39 0 0 -150 c0 -93 4 -150 10 -151
6 0 25 -1 43 -2 l32 -1 3 152 3 152 39 0 c39 0 40 1 40 35 l0 35 -128 0 -128
0 4 -35z"/>
<path d="M2222 1323 c3 -172 5 -188 21 -187 9 1 28 2 42 3 l25 1 0 185 0 185
-45 0 -45 0 2 -187z"/>
<path d="M2722 1324 l3 -187 38 -1 39 -1 -4 127 c-2 69 0 124 5 121 4 -2 7 -9
7 -15 0 -27 104 -228 119 -229 9 -1 28 -2 44 -3 l27 -3 0 189 0 188 -41 0 -42
0 5 -120 5 -121 -41 88 c-23 48 -48 103 -55 121 -13 30 -17 32 -62 32 l-49 0
2 -186z"/>
</g>
</svg>
