<?xml version="1.0" standalone="no"?>
<!DOCTYPE svg PUBLIC "-//W3C//DTD SVG 20010904//EN"
 "http://www.w3.org/TR/2001/REC-SVG-20010904/DTD/svg10.dtd">
<svg version="1.0" xmlns="http://www.w3.org/2000/svg"
 width="474.000000pt" height="474.000000pt" viewBox="0 0 474.000000 474.000000"
 preserveAspectRatio="xMidYMid meet">

<g transform="translate(0.000000,474.000000) scale(0.100000,-0.100000)"
fill="#000000" stroke="none">
<path d="M1270 4731 c0 -5 -13 -12 -30 -16 -43 -10 -141 -76 -173 -118 -16
-21 -40 -63 -55 -95 -24 -50 -27 -69 -27 -157 0 -92 3 -105 31 -165 120 -247
431 -303 628 -115 72 69 110 158 114 265 3 68 -1 96 -17 140 -45 121 -120 199
-223 237 -27 10 -48 21 -48 25 0 5 -45 8 -100 8 -55 0 -100 -4 -100 -9z"/>
<path d="M2662 4258 c-19 -6 -53 -30 -76 -52 -75 -73 -85 -177 -26 -270 17
-26 30 -48 30 -49 0 -2 -49 -3 -108 -2 -144 0 -142 2 -142 -131 0 -118 4 -124
84 -124 l46 0 0 -105 0 -105 168 2 167 3 3 103 3 102 134 0 135 0 0 -105 0
-105 165 0 165 0 0 105 0 105 54 0 c75 0 86 17 86 130 0 124 -1 125 -144 125
-64 0 -116 3 -116 6 0 4 7 12 16 20 51 42 71 166 38 235 -34 71 -118 124 -200
124 -47 0 -135 -50 -170 -96 l-31 -42 -42 49 c-23 27 -56 56 -73 65 -39 20
-124 26 -166 12z m130 -155 c32 -33 78 -129 78 -160 0 -32 -31 -30 -105 6 -80
38 -105 63 -105 106 0 73 81 102 132 48z m417 1 c43 -55 17 -105 -81 -153 -34
-17 -74 -31 -90 -31 -26 0 -28 2 -22 28 11 48 52 131 78 157 35 35 87 34 115
-1z"/>
<path d="M719 3807 c-120 -41 -208 -120 -262 -235 -31 -67 -32 -68 -38 -282
-4 -118 -8 -465 -8 -770 -1 -518 1 -558 18 -595 66 -147 268 -149 338 -5 21
44 22 53 30 770 l8 725 25 0 25 0 5 -1625 5 -1625 22 -41 c19 -35 45 -63 110
-114 20 -16 180 -12 200 4 10 8 32 26 49 40 18 14 41 46 53 71 21 45 21 49 21
969 0 872 1 925 18 929 9 3 28 4 42 3 24 -3 25 -5 27 -87 2 -46 4 -464 5 -929
3 -954 -3 -879 86 -962 l51 -48 94 0 c53 0 97 3 99 8 2 4 20 20 42 36 23 17
48 49 62 80 l24 51 0 1618 c0 1488 1 1618 16 1624 9 3 24 2 33 -4 14 -9 17
-54 21 -379 l5 -369 27 -45 c38 -66 92 -93 172 -88 62 4 68 7 364 192 166 103
315 203 331 222 97 110 31 281 -119 309 -51 9 -98 -10 -248 -103 -72 -45 -136
-82 -142 -82 -6 0 -10 67 -10 194 0 161 -3 204 -18 254 -38 120 -131 224 -252
281 l-55 26 -605 2 -605 3 -66 -23z"/>
<path d="M3080 3020 l0 -150 146 0 c81 0 154 5 165 10 17 10 19 23 19 150 l0
140 -165 0 -165 0 0 -150z"/>
<path d="M2255 2316 c-44 -20 -92 -75 -105 -121 -8 -29 -10 -272 -8 -875 3
-798 4 -837 22 -873 31 -64 84 -91 185 -97 l86 -5 2 -147 c3 -205 -4 -197 178
-198 177 0 168 -10 175 195 l5 150 445 0 445 0 5 -150 c7 -206 -3 -195 181
-195 l147 0 16 40 c12 30 16 75 16 175 l0 135 78 0 c70 0 83 3 126 30 32 21
53 44 66 73 19 40 20 75 20 887 0 809 -1 847 -19 887 -12 26 -35 52 -62 70
l-43 28 -965 2 c-793 2 -971 0 -996 -11z m1253 -793 c20 -18 122 -330 122
-372 0 -21 -37 -39 -50 -24 -4 4 -13 25 -20 46 l-12 37 -68 0 -69 0 -7 -35
c-8 -45 -26 -60 -53 -45 -12 6 -21 17 -21 24 0 8 24 91 54 186 61 197 78 222
124 183z m-947 -9 c45 -23 59 -67 59 -190 0 -130 -13 -165 -71 -188 -39 -16
-143 -22 -173 -10 -14 5 -16 32 -16 198 0 106 3 196 7 199 13 14 164 7 194 -9z
m350 -22 c29 -32 29 -34 29 -157 0 -68 -4 -135 -10 -149 -21 -56 -112 -82
-184 -52 -55 23 -69 67 -64 205 4 161 30 195 142 188 52 -3 63 -8 87 -35z
m171 21 c8 -10 39 -65 69 -122 l54 -105 5 120 5 119 30 0 30 0 3 -196 c2 -176
1 -197 -14 -203 -34 -13 -51 7 -115 127 l-64 122 -3 -122 c-2 -112 -4 -122
-23 -128 -44 -14 -49 5 -49 205 0 102 3 190 7 193 12 13 50 7 65 -10z m813
-13 c0 -23 -4 -25 -52 -28 l-53 -3 0 -168 c0 -141 -2 -170 -15 -175 -8 -3 -22
-3 -30 0 -13 5 -15 34 -15 175 l0 169 -50 0 c-52 0 -69 13 -56 45 5 13 27 15
138 13 l133 -3 0 -25z m299 15 c14 -37 -3 -45 -95 -45 l-89 0 0 -44 c0 -69 5
-76 62 -76 46 0 49 -2 46 -22 -3 -20 -10 -23 -50 -26 -52 -3 -49 0 -52 -77
l-1 -40 87 -3 c68 -2 87 -6 92 -19 14 -35 -12 -44 -128 -41 l-111 3 -3 190
c-1 104 0 195 2 202 8 20 232 18 240 -2z"/>
<path d="M3478 1434 c-6 -10 -48 -147 -48 -158 0 -3 23 -6 50 -6 28 0 50 3 50
8 -1 23 -48 164 -52 156z"/>
<path d="M2430 1325 l0 -145 38 0 c21 0 48 7 60 16 21 14 22 23 22 128 0 131
-8 146 -78 146 l-42 0 0 -145z"/>
<path d="M2769 1453 c-22 -26 -25 -217 -5 -248 17 -25 57 -33 84 -17 44 28 43
246 -1 274 -21 13 -64 9 -78 -9z"/>
</g>
</svg>
