<svg xmlns="http://www.w3.org/2000/svg" enable-background="new 0 0 64 64" viewBox="0 0 64 64"><path fill="#658faa" d="M7.33 49.73c-3.94 0-7.14 3.19-7.14 7.14S3.39 64 7.33 64c3.94 0 7.14-3.19 7.14-7.14S11.27 49.73 7.33 49.73zM23.78 49.73c-3.94 0-7.14 3.19-7.14 7.14S19.84 64 23.78 64s7.14-3.19 7.14-7.14S27.72 49.73 23.78 49.73zM40.22 49.73c-3.94 0-7.14 3.19-7.14 7.14S36.28 64 40.22 64s7.14-3.19 7.14-7.14S44.16 49.73 40.22 49.73zM56.67 49.73c-3.94 0-7.14 3.19-7.14 7.14S52.73 64 56.67 64c3.94 0 7.14-3.19 7.14-7.14S60.61 49.73 56.67 49.73z"/><path fill="#e9e8e8" d="M9.35,54.89c0,1.11-0.9,2.02-2.02,2.02S5.32,56,5.32,54.89c0-1.11,0.9-2.02,2.02-2.02
					S9.35,53.77,9.35,54.89z"/><path fill="#e9e8e8" d="M3.38 60.86c0-2.18 1.77-3.95 3.95-3.95s3.95 1.77 3.95 3.95H3.38zM25.79 54.89c0 1.11-.9 2.02-2.02 2.02-1.11 0-2.02-.9-2.02-2.02 0-1.11.9-2.02 2.02-2.02C24.89 52.87 25.79 53.77 25.79 54.89z"/><path fill="#e9e8e8" d="M19.82 60.86c0-2.18 1.77-3.95 3.95-3.95 2.18 0 3.95 1.77 3.95 3.95H19.82zM42.24 54.89c0 1.11-.9 2.02-2.02 2.02-1.11 0-2.02-.9-2.02-2.02 0-1.11.9-2.02 2.02-2.02C41.34 52.87 42.24 53.77 42.24 54.89z"/><path fill="#e9e8e8" d="M36.27 60.86c0-2.18 1.77-3.95 3.95-3.95s3.95 1.77 3.95 3.95H36.27zM58.68 54.89c0 1.11-.9 2.02-2.02 2.02-1.11 0-2.02-.9-2.02-2.02 0-1.11.9-2.02 2.02-2.02C57.78 52.87 58.68 53.77 58.68 54.89z"/><path fill="#e9e8e8" d="M52.71,60.86c0-2.18,1.77-3.95,3.95-3.95c2.18,0,3.95,1.77,3.95,3.95H52.71z"/><path fill="#355471" d="M22.69 40.29c0-3.94-3.19-7.14-7.14-7.14-3.94 0-7.14 3.19-7.14 7.14s3.2 7.14 7.14 7.14C19.5 47.42 22.69 44.23 22.69 40.29zM39.14 40.29c0-3.94-3.19-7.14-7.14-7.14-3.94 0-7.14 3.19-7.14 7.14s3.19 7.14 7.14 7.14C35.94 47.42 39.14 44.23 39.14 40.29zM55.58 40.29c0-3.94-3.19-7.14-7.14-7.14s-7.14 3.19-7.14 7.14 3.19 7.14 7.14 7.14S55.58 44.23 55.58 40.29z"/><path fill="#e9e8e8" d="M17.57,38.31c0,1.11-0.9,2.02-2.02,2.02c-1.11,0-2.02-0.9-2.02-2.02c0-1.11,0.9-2.02,2.02-2.02
					C16.67,36.3,17.57,37.2,17.57,38.31z"/><path fill="#e9e8e8" d="M11.6 44.28c0-2.18 1.77-3.95 3.95-3.95 2.18 0 3.95 1.77 3.95 3.95H11.6zM34.02 38.31c0 1.11-.9 2.02-2.02 2.02-1.11 0-2.02-.9-2.02-2.02 0-1.11.9-2.02 2.02-2.02C33.11 36.3 34.02 37.2 34.02 38.31z"/><path fill="#e9e8e8" d="M28.05,44.28c0-2.18,1.77-3.95,3.95-3.95c2.18,0,3.95,1.77,3.95,3.95H28.05z"/><g><path fill="#e9e8e8" d="M50.46,38.31c0,1.11-0.9,2.02-2.02,2.02c-1.11,0-2.02-0.9-2.02-2.02c0-1.11,0.9-2.02,2.02-2.02
					C49.56,36.3,50.46,37.2,50.46,38.31z"/><path fill="#e9e8e8" d="M44.49,44.28c0-2.18,1.77-3.95,3.95-3.95s3.95,1.77,3.95,3.95H44.49z"/></g><g><circle cx="23.78" cy="23.71" r="7.14" fill="#efba73"/><circle cx="40.22" cy="23.71" r="7.14" fill="#efba73"/><path fill="#e9e8e8" d="M25.79,21.74c0,1.11-0.9,2.02-2.02,2.02c-1.11,0-2.02-0.9-2.02-2.02c0-1.11,0.9-2.02,2.02-2.02
					C24.89,19.72,25.79,20.62,25.79,21.74z"/><path fill="#e9e8e8" d="M19.82 27.7c0-2.18 1.77-3.95 3.95-3.95 2.18 0 3.95 1.77 3.95 3.95H19.82zM42.24 21.74c0 1.11-.9 2.02-2.02 2.02-1.11 0-2.02-.9-2.02-2.02 0-1.11.9-2.02 2.02-2.02C41.34 19.72 42.24 20.62 42.24 21.74z"/><path fill="#e9e8e8" d="M36.27,27.7c0-2.18,1.77-3.95,3.95-3.95s3.95,1.77,3.95,3.95H36.27z"/></g><g><circle cx="32" cy="7.14" r="7.14" fill="#ef5d82"/><path fill="#e9e8e8" d="M34.02 5.16c0 1.11-.9 2.02-2.02 2.02-1.11 0-2.02-.9-2.02-2.02 0-1.11.9-2.02 2.02-2.02C33.11 3.14 34.02 4.05 34.02 5.16zM28.05 11.13c0-2.18 1.77-3.95 3.95-3.95 2.18 0 3.95 1.77 3.95 3.95H28.05z"/></g><g><path fill="#66b09c" d="M16.06 50.21v-1.32c0-.28-.22-.5-.5-.5-.28 0-.5.22-.5.5v1.32l-1.07.71c-.23.15-.29.46-.14.69.15.23.46.29.69.14l1.01-.68 1.01.68c.09.06.18.08.28.08.16 0 .32-.08.42-.22.15-.23.09-.54-.14-.69L16.06 50.21zM32.5 50.21v-1.32c0-.28-.22-.5-.5-.5-.28 0-.5.22-.5.5v1.32l-1.07.71c-.23.15-.29.46-.14.69.15.23.46.29.69.14L32 51.07l1.01.68c.09.06.18.08.28.08.16 0 .32-.08.42-.22.15-.23.09-.54-.14-.69L32.5 50.21zM50.01 50.92l-1.07-.71v-1.32c0-.28-.22-.5-.5-.5-.28 0-.5.22-.5.5v1.32l-1.07.71c-.23.15-.29.46-.14.69.15.23.46.29.69.14l1.01-.68 1.01.68c.09.06.18.08.28.08.16 0 .32-.08.42-.22C50.3 51.38 50.24 51.07 50.01 50.92zM24.28 33.64v-1.32c0-.28-.22-.5-.5-.5-.28 0-.5.22-.5.5v1.32l-1.07.71c-.23.15-.29.46-.14.69.15.23.46.29.69.14l1.01-.68 1.01.68c.09.06.18.08.28.08.16 0 .32-.08.42-.22.15-.23.09-.54-.14-.69L24.28 33.64zM40.72 33.64v-1.32c0-.28-.22-.5-.5-.5-.28 0-.5.22-.5.5v1.32l-1.07.71c-.23.15-.29.46-.14.69.15.23.46.29.69.14l1.01-.68 1.01.68c.09.06.18.08.28.08.16 0 .32-.08.42-.22.15-.23.09-.54-.14-.69L40.72 33.64zM32.5 17.07v-1.32c0-.28-.22-.5-.5-.5-.28 0-.5.22-.5.5v1.32l-1.07.71c-.23.15-.29.46-.14.69.15.23.46.29.69.14L32 17.94l1.01.68c.09.06.18.08.28.08.16 0 .32-.08.42-.22.15-.23.09-.54-.14-.69L32.5 17.07z"/></g></svg>